<svg xmlns="http://www.w3.org/2000/svg" xmlns:xlink="http://www.w3.org/1999/xlink" contentStyleType="text/css" data-diagram-type="CLASS" height="1127px" preserveAspectRatio="none" style="width:1196px;height:1127px;background:#FFFFFF;" version="1.1" viewBox="0 0 1196 1127" width="1196px" zoomAndPan="magnify"><?plantuml 1.2026.3beta6?><defs/><g><!--class usuario--><g class="entity" data-qualified-name="usuario" data-source-line="6" id="ent0002"><rect fill="#FFFFFF" height="174.375" rx="2.5" ry="2.5" style="stroke:#000000;stroke-width:1;" width="258.9033" x="12" y="52.74"/><ellipse cx="111.7866" cy="66.74" fill="#FFFFFF" rx="9" ry="9" style="stroke:#000000;stroke-width:1;"/><path d="M115.896,72.74 L108.1772,72.74 L108.1772,60.3494 L115.896,60.3494 L115.896,62.5056 L110.6304,62.5056 L110.6304,65.1775 L115.396,65.1775 L115.396,67.3338 L110.6304,67.3338 L110.6304,70.5838 L115.896,70.5838 L115.896,72.74 Z " fill="#000000"/><text fill="#000000" font-family="Verdana" font-size="14" lengthAdjust="spacing" textLength="51.8301" x="129.2866" y="71.5867">usuario</text><line style="stroke:#000000;stroke-width:1;" x1="13" x2="269.9033" y1="80.74" y2="80.74"/><g data-visibility-modifier="IE_MANDATORY"><ellipse cx="23" cy="94.3884" fill="#FFFFFF" rx="3" ry="3" style="stroke:#000000;stroke-width:1;"/></g><text fill="#000000" font-family="Verdana" font-size="14" lengthAdjust="spacing" textLength="139.1455" x="30" y="97.7351">id : BIGSERIAL &#171;PK&#187;</text><line style="stroke:#000000;stroke-width:1;" x1="13" x2="269.9033" y1="105.0369" y2="105.0369"/><g data-visibility-modifier="IE_MANDATORY"><ellipse cx="23" cy="118.6853" fill="#FFFFFF" rx="3" ry="3" style="stroke:#000000;stroke-width:1;"/></g><text fill="#000000" font-family="Verdana" font-size="14" lengthAdjust="spacing" textLength="174.084" x="30" y="122.032">nombre : VARCHAR(100)</text><g data-visibility-modifier="IE_MANDATORY"><ellipse cx="23" cy="134.9822" fill="#FFFFFF" rx="3" ry="3" style="stroke:#000000;stroke-width:1;"/></g><text fill="#000000" font-family="Verdana" font-size="14" lengthAdjust="spacing" textLength="234.9033" x="30" y="138.3289">email : VARCHAR(150) &#171;UNIQUE&#187;</text><g data-visibility-modifier="IE_MANDATORY"><ellipse cx="23" cy="151.2791" fill="#FFFFFF" rx="3" ry="3" style="stroke:#000000;stroke-width:1;"/></g><text fill="#000000" font-family="Verdana" font-size="14" lengthAdjust="spacing" textLength="227.083" x="30" y="154.6257">password_hash : VARCHAR(255)</text><g data-visibility-modifier="IE_MANDATORY"><ellipse cx="23" cy="167.5759" fill="#FFFFFF" rx="3" ry="3" style="stroke:#000000;stroke-width:1;"/></g><text fill="#000000" font-family="Verdana" font-size="14" lengthAdjust="spacing" textLength="129.0557" x="30" y="170.9226">rol : VARCHAR(20)</text><text fill="#000000" font-family="Verdana" font-size="14" lengthAdjust="spacing" textLength="185.8145" x="65.6016" y="187.2195">&#171;ADMIN | COORDINADOR&#187;</text><g data-visibility-modifier="IE_MANDATORY"><ellipse cx="23" cy="200.1697" fill="#FFFFFF" rx="3" ry="3" style="stroke:#000000;stroke-width:1;"/></g><text fill="#000000" font-family="Verdana" font-size="14" lengthAdjust="spacing" textLength="218.2646" x="30" y="203.5164">fecha_creacion : TIMESTAMPTZ</text><g data-visibility-modifier="IE_MANDATORY"><ellipse cx="23" cy="216.4666" fill="#FFFFFF" rx="3" ry="3" style="stroke:#000000;stroke-width:1;"/></g><text fill="#000000" font-family="Verdana" font-size="14" lengthAdjust="spacing" textLength="124.4619" x="30" y="219.8132">activo : BOOLEAN</text></g><!--class centro--><g class="entity" data-qualified-name="centro" data-source-line="18" id="ent0003"><rect fill="#FFFFFF" height="255.8594" rx="2.5" ry="2.5" style="stroke:#000000;stroke-width:1;" width="242.2646" x="528.32" y="12"/><ellipse cx="585.2658" cy="26" fill="#FFFFFF" rx="9" ry="9" style="stroke:#000000;stroke-width:1;"/><path d="M589.3752,32 L581.6564,32 L581.6564,19.6094 L589.3752,19.6094 L589.3752,21.7656 L584.1096,21.7656 L584.1096,24.4375 L588.8752,24.4375 L588.8752,26.5938 L584.1096,26.5938 L584.1096,29.8438 L589.3752,29.8438 L589.3752,32 Z " fill="#000000"/><text fill="#000000" font-family="Verdana" font-size="14" lengthAdjust="spacing" textLength="120.873" x="602.7658" y="30.8467">centro_educativo</text><line style="stroke:#000000;stroke-width:1;" x1="529.32" x2="769.5846" y1="40" y2="40"/><g data-visibility-modifier="IE_MANDATORY"><ellipse cx="539.32" cy="53.6484" fill="#FFFFFF" rx="3" ry="3" style="stroke:#000000;stroke-width:1;"/></g><text fill="#000000" font-family="Verdana" font-size="14" lengthAdjust="spacing" textLength="139.1455" x="546.32" y="56.9951">id : BIGSERIAL &#171;PK&#187;</text><line style="stroke:#000000;stroke-width:1;" x1="529.32" x2="769.5846" y1="64.2969" y2="64.2969"/><g data-visibility-modifier="IE_MANDATORY"><ellipse cx="539.32" cy="77.9453" fill="#FFFFFF" rx="3" ry="3" style="stroke:#000000;stroke-width:1;"/></g><text fill="#000000" font-family="Verdana" font-size="14" lengthAdjust="spacing" textLength="174.084" x="546.32" y="81.292">nombre : VARCHAR(200)</text><g data-visibility-modifier="IE_MANDATORY"><ellipse cx="539.32" cy="94.2422" fill="#FFFFFF" rx="3" ry="3" style="stroke:#000000;stroke-width:1;"/></g><text fill="#000000" font-family="Verdana" font-size="14" lengthAdjust="spacing" textLength="183.6201" x="546.32" y="97.5889">direccion : VARCHAR(300)</text><text fill="#000000" font-family="Verdana" font-size="14" lengthAdjust="spacing" textLength="163.7959" x="546.32" y="113.8857">latitud : DECIMAL(10,8)</text><text fill="#000000" font-family="Verdana" font-size="14" lengthAdjust="spacing" textLength="176.0527" x="546.32" y="130.1826">longitud : DECIMAL(11,8)</text><text fill="#000000" font-family="Verdana" font-size="14" lengthAdjust="spacing" textLength="205.0029" x="546.32" y="146.4795">responsable : VARCHAR(100)</text><text fill="#000000" font-family="Verdana" font-size="14" lengthAdjust="spacing" textLength="134.4971" x="546.32" y="162.7764">isla : VARCHAR(20)</text><text fill="#000000" font-family="Verdana" font-size="14" lengthAdjust="spacing" textLength="187.585" x="546.32" y="179.0732">poblacion : VARCHAR(100)</text><text fill="#000000" font-family="Verdana" font-size="14" lengthAdjust="spacing" textLength="184.1738" x="546.32" y="195.3701">provincia : VARCHAR(100)</text><text fill="#000000" font-family="Verdana" font-size="14" lengthAdjust="spacing" textLength="207.04" x="546.32" y="211.667">codigo_postal : VARCHAR(10)</text><text fill="#000000" font-family="Verdana" font-size="14" lengthAdjust="spacing" textLength="168.3828" x="546.32" y="227.9639">telefono : VARCHAR(20)</text><text fill="#000000" font-family="Verdana" font-size="14" lengthAdjust="spacing" textLength="158.3613" x="546.32" y="244.2607">email : VARCHAR(150)</text><g data-visibility-modifier="IE_MANDATORY"><ellipse cx="539.32" cy="257.2109" fill="#FFFFFF" rx="3" ry="3" style="stroke:#000000;stroke-width:1;"/></g><text fill="#000000" font-family="Verdana" font-size="14" lengthAdjust="spacing" textLength="218.2646" x="546.32" y="260.5576">fecha_creacion : TIMESTAMPTZ</text></g><!--class dispositivo--><g class="entity" data-qualified-name="dispositivo" data-source-line="35" id="ent0004"><rect fill="#FFFFFF" height="239.5625" rx="2.5" ry="2.5" style="stroke:#000000;stroke-width:1;" width="367.8477" x="465.53" y="347.86"/><ellipse cx="583.4319" cy="361.86" fill="#FFFFFF" rx="9" ry="9" style="stroke:#000000;stroke-width:1;"/><path d="M587.5412,367.86 L579.8225,367.86 L579.8225,355.4694 L587.5412,355.4694 L587.5412,357.6256 L582.2756,357.6256 L582.2756,360.2975 L587.0412,360.2975 L587.0412,362.4538 L582.2756,362.4538 L582.2756,365.7038 L587.5412,365.7038 L587.5412,367.86 Z " fill="#000000"/><text fill="#000000" font-family="Verdana" font-size="14" lengthAdjust="spacing" textLength="124.5439" x="600.9319" y="366.7067">dispositivo_esp32</text><line style="stroke:#000000;stroke-width:1;" x1="466.53" x2="832.3777" y1="375.86" y2="375.86"/><g data-visibility-modifier="IE_MANDATORY"><ellipse cx="476.53" cy="389.5084" fill="#FFFFFF" rx="3" ry="3" style="stroke:#000000;stroke-width:1;"/></g><text fill="#000000" font-family="Verdana" font-size="14" lengthAdjust="spacing" textLength="139.1455" x="483.53" y="392.8551">id : BIGSERIAL &#171;PK&#187;</text><line style="stroke:#000000;stroke-width:1;" x1="466.53" x2="832.3777" y1="400.1569" y2="400.1569"/><g data-visibility-modifier="IE_MANDATORY"><ellipse cx="476.53" cy="413.8053" fill="#FFFFFF" rx="3" ry="3" style="stroke:#000000;stroke-width:1;"/></g><text fill="#000000" font-family="Verdana" font-size="14" lengthAdjust="spacing" textLength="279.6104" x="483.53" y="417.152">mac_address : VARCHAR(17) &#171;UNIQUE&#187;</text><g data-visibility-modifier="IE_MANDATORY"><ellipse cx="476.53" cy="430.1022" fill="#FFFFFF" rx="3" ry="3" style="stroke:#000000;stroke-width:1;"/></g><text fill="#000000" font-family="Verdana" font-size="14" lengthAdjust="spacing" textLength="164.9375" x="483.53" y="433.4489">centro_id : BIGINT &#171;FK&#187;</text><g data-visibility-modifier="IE_MANDATORY"><ellipse cx="476.53" cy="446.3991" fill="#FFFFFF" rx="3" ry="3" style="stroke:#000000;stroke-width:1;"/></g><text fill="#000000" font-family="Verdana" font-size="14" lengthAdjust="spacing" textLength="124.4619" x="483.53" y="449.7457">activo : BOOLEAN</text><text fill="#000000" font-family="Verdana" font-size="14" lengthAdjust="spacing" textLength="227.623" x="483.53" y="466.0426">ultima_conexion : TIMESTAMPTZ</text><g data-visibility-modifier="IE_MANDATORY"><ellipse cx="476.53" cy="478.9928" fill="#FFFFFF" rx="3" ry="3" style="stroke:#000000;stroke-width:1;"/></g><text fill="#000000" font-family="Verdana" font-size="14" lengthAdjust="spacing" textLength="236.25" x="483.53" y="482.3395">frecuencia_lectura_seg : INTEGER</text><text fill="#000000" font-family="Verdana" font-size="14" lengthAdjust="spacing" textLength="236.4414" x="483.53" y="498.6364">umbral_temp_min : DECIMAL(5,2)</text><text fill="#000000" font-family="Verdana" font-size="14" lengthAdjust="spacing" textLength="240.543" x="483.53" y="514.9332">umbral_temp_max : DECIMAL(5,2)</text><text fill="#000000" font-family="Verdana" font-size="14" lengthAdjust="spacing" textLength="339.7461" x="483.53" y="531.2301">umbral_humedad_ambiente_min : DECIMAL(5,2)</text><text fill="#000000" font-family="Verdana" font-size="14" lengthAdjust="spacing" textLength="343.8477" x="483.53" y="547.527">umbral_humedad_ambiente_max : DECIMAL(5,2)</text><text fill="#000000" font-family="Verdana" font-size="14" lengthAdjust="spacing" textLength="310.3994" x="483.53" y="563.8239">umbral_humedad_suelo_min : DECIMAL(5,2)</text><text fill="#000000" font-family="Verdana" font-size="14" lengthAdjust="spacing" textLength="229.0859" x="483.53" y="580.1207">umbral_co2_max : DECIMAL(7,2)</text></g><!--class arbol--><g class="entity" data-qualified-name="arbol" data-source-line="51" id="ent0005"><rect fill="#FFFFFF" height="174.375" rx="2.5" ry="2.5" style="stroke:#000000;stroke-width:1;" width="287.792" x="893.56" y="380.45"/><ellipse cx="1015.8676" cy="394.45" fill="#FFFFFF" rx="9" ry="9" style="stroke:#000000;stroke-width:1;"/><path d="M1019.977,400.45 L1012.2582,400.45 L1012.2582,388.0594 L1019.977,388.0594 L1019.977,390.2156 L1014.7114,390.2156 L1014.7114,392.8875 L1019.477,392.8875 L1019.477,395.0438 L1014.7114,395.0438 L1014.7114,398.2938 L1019.977,398.2938 L1019.977,400.45 Z " fill="#000000"/><text fill="#000000" font-family="Verdana" font-size="14" lengthAdjust="spacing" textLength="35.6768" x="1033.3676" y="399.2967">arbol</text><line style="stroke:#000000;stroke-width:1;" x1="894.56" x2="1180.352" y1="408.45" y2="408.45"/><g data-visibility-modifier="IE_MANDATORY"><ellipse cx="904.56" cy="422.0984" fill="#FFFFFF" rx="3" ry="3" style="stroke:#000000;stroke-width:1;"/></g><text fill="#000000" font-family="Verdana" font-size="14" lengthAdjust="spacing" textLength="139.1455" x="911.56" y="425.4451">id : BIGSERIAL &#171;PK&#187;</text><line style="stroke:#000000;stroke-width:1;" x1="894.56" x2="1180.352" y1="432.7469" y2="432.7469"/><g data-visibility-modifier="IE_MANDATORY"><ellipse cx="904.56" cy="446.3953" fill="#FFFFFF" rx="3" ry="3" style="stroke:#000000;stroke-width:1;"/></g><text fill="#000000" font-family="Verdana" font-size="14" lengthAdjust="spacing" textLength="164.9375" x="911.56" y="449.742">centro_id : BIGINT &#171;FK&#187;</text><g data-visibility-modifier="IE_MANDATORY"><ellipse cx="904.56" cy="462.6922" fill="#FFFFFF" rx="3" ry="3" style="stroke:#000000;stroke-width:1;"/></g><text fill="#000000" font-family="Verdana" font-size="14" lengthAdjust="spacing" textLength="174.084" x="911.56" y="466.0389">nombre : VARCHAR(100)</text><g data-visibility-modifier="IE_MANDATORY"><ellipse cx="904.56" cy="478.9891" fill="#FFFFFF" rx="3" ry="3" style="stroke:#000000;stroke-width:1;"/></g><text fill="#000000" font-family="Verdana" font-size="14" lengthAdjust="spacing" textLength="173.3594" x="911.56" y="482.3357">especie : VARCHAR(150)</text><g data-visibility-modifier="IE_MANDATORY"><ellipse cx="904.56" cy="495.2859" fill="#FFFFFF" rx="3" ry="3" style="stroke:#000000;stroke-width:1;"/></g><text fill="#000000" font-family="Verdana" font-size="14" lengthAdjust="spacing" textLength="170.3857" x="911.56" y="498.6326">fecha_plantacion : DATE</text><text fill="#000000" font-family="Verdana" font-size="14" lengthAdjust="spacing" textLength="263.792" x="911.56" y="514.9295">ubicacion_especifica : VARCHAR(200)</text><text fill="#000000" font-family="Verdana" font-size="14" lengthAdjust="spacing" textLength="255.8623" x="911.56" y="531.2264">absorcion_co2_anual : DECIMAL(8,2)</text><g data-visibility-modifier="IE_MANDATORY"><ellipse cx="904.56" cy="544.1766" fill="#FFFFFF" rx="3" ry="3" style="stroke:#000000;stroke-width:1;"/></g><text fill="#000000" font-family="Verdana" font-size="14" lengthAdjust="spacing" textLength="135.9189" x="911.56" y="547.5232">cantidad : INTEGER</text></g><!--class lectura--><g class="entity" data-qualified-name="lectura" data-source-line="63" id="ent0006"><rect fill="#FFFFFF" height="223.2656" rx="2.5" ry="2.5" style="stroke:#000000;stroke-width:1;" width="289.0088" x="113.95" y="675.57"/><ellipse cx="230.2557" cy="689.57" fill="#FFFFFF" rx="9" ry="9" style="stroke:#000000;stroke-width:1;"/><path d="M234.365,695.57 L226.6463,695.57 L226.6463,683.1794 L234.365,683.1794 L234.365,685.3356 L229.0994,685.3356 L229.0994,688.0075 L233.865,688.0075 L233.865,690.1638 L229.0994,690.1638 L229.0994,693.4138 L234.365,693.4138 L234.365,695.57 Z " fill="#000000"/><text fill="#000000" font-family="Verdana" font-size="14" lengthAdjust="spacing" textLength="48.8975" x="247.7557" y="694.4167">lectura</text><line style="stroke:#000000;stroke-width:1;" x1="114.95" x2="401.9588" y1="703.57" y2="703.57"/><g data-visibility-modifier="IE_MANDATORY"><ellipse cx="124.95" cy="717.2184" fill="#FFFFFF" rx="3" ry="3" style="stroke:#000000;stroke-width:1;"/></g><text fill="#000000" font-family="Verdana" font-size="14" lengthAdjust="spacing" textLength="99.9414" x="131.95" y="720.5651">id : BIGSERIAL</text><g data-visibility-modifier="IE_MANDATORY"><ellipse cx="124.95" cy="733.5153" fill="#FFFFFF" rx="3" ry="3" style="stroke:#000000;stroke-width:1;"/></g><text fill="#000000" font-family="Verdana" font-size="14" lengthAdjust="spacing" textLength="188.4189" x="131.95" y="736.862">timestamp : TIMESTAMPTZ</text><text fill="#000000" font-family="Verdana" font-size="14" lengthAdjust="spacing" textLength="229.4072" x="167.5516" y="753.1589">&#171;PK compuesta (id, timestamp)&#187;</text><text fill="#000000" font-family="Verdana" font-size="14" lengthAdjust="spacing" textLength="188.6035" x="167.5516" y="769.4557">&#171;TimescaleDB hypertable&#187;</text><line style="stroke:#000000;stroke-width:1;" x1="114.95" x2="401.9588" y1="776.7575" y2="776.7575"/><g data-visibility-modifier="IE_MANDATORY"><ellipse cx="124.95" cy="790.4059" fill="#FFFFFF" rx="3" ry="3" style="stroke:#000000;stroke-width:1;"/></g><text fill="#000000" font-family="Verdana" font-size="14" lengthAdjust="spacing" textLength="194.8789" x="131.95" y="793.7526">dispositivo_id : BIGINT &#171;FK&#187;</text><g data-visibility-modifier="IE_MANDATORY"><ellipse cx="124.95" cy="806.7028" fill="#FFFFFF" rx="3" ry="3" style="stroke:#000000;stroke-width:1;"/></g><text fill="#000000" font-family="Verdana" font-size="14" lengthAdjust="spacing" textLength="198.0645" x="131.95" y="810.0495">temperatura : DECIMAL(5,2)</text><g data-visibility-modifier="IE_MANDATORY"><ellipse cx="124.95" cy="822.9997" fill="#FFFFFF" rx="3" ry="3" style="stroke:#000000;stroke-width:1;"/></g><text fill="#000000" font-family="Verdana" font-size="14" lengthAdjust="spacing" textLength="249.7236" x="131.95" y="826.3464">humedad_ambiente : DECIMAL(5,2)</text><g data-visibility-modifier="IE_MANDATORY"><ellipse cx="124.95" cy="839.2966" fill="#FFFFFF" rx="3" ry="3" style="stroke:#000000;stroke-width:1;"/></g><text fill="#000000" font-family="Verdana" font-size="14" lengthAdjust="spacing" textLength="220.377" x="131.95" y="842.6432">humedad_suelo : DECIMAL(5,2)</text><text fill="#000000" font-family="Verdana" font-size="14" lengthAdjust="spacing" textLength="134.9619" x="131.95" y="858.9401">co2 : DECIMAL(7,2)</text><text fill="#000000" font-family="Verdana" font-size="14" lengthAdjust="spacing" textLength="138.8105" x="131.95" y="875.237">luz1 : DECIMAL(5,2)</text><text fill="#000000" font-family="Verdana" font-size="14" lengthAdjust="spacing" textLength="138.8105" x="131.95" y="891.5339">luz2 : DECIMAL(5,2)</text></g><!--class alerta--><g class="entity" data-qualified-name="alerta" data-source-line="78" id="ent0007"><rect fill="#FFFFFF" height="239.5625" rx="2.5" ry="2.5" style="stroke:#000000;stroke-width:1;" width="381.0889" x="462.91" y="667.42"/><ellipse cx="629.2513" cy="681.42" fill="#FFFFFF" rx="9" ry="9" style="stroke:#000000;stroke-width:1;"/><path d="M633.3607,687.42 L625.6419,687.42 L625.6419,675.0294 L633.3607,675.0294 L633.3607,677.1856 L628.0951,677.1856 L628.0951,679.8575 L632.8607,679.8575 L632.8607,682.0138 L628.0951,682.0138 L628.0951,685.2638 L633.3607,685.2638 L633.3607,687.42 Z " fill="#000000"/><text fill="#000000" font-family="Verdana" font-size="14" lengthAdjust="spacing" textLength="40.9063" x="646.7513" y="686.2667">alerta</text><line style="stroke:#000000;stroke-width:1;" x1="463.91" x2="842.9989" y1="695.42" y2="695.42"/><g data-visibility-modifier="IE_MANDATORY"><ellipse cx="473.91" cy="709.0684" fill="#FFFFFF" rx="3" ry="3" style="stroke:#000000;stroke-width:1;"/></g><text fill="#000000" font-family="Verdana" font-size="14" lengthAdjust="spacing" textLength="139.1455" x="480.91" y="712.4151">id : BIGSERIAL &#171;PK&#187;</text><line style="stroke:#000000;stroke-width:1;" x1="463.91" x2="842.9989" y1="719.7169" y2="719.7169"/><text fill="#000000" font-family="Verdana" font-size="14" lengthAdjust="spacing" textLength="259.2734" x="480.91" y="736.712">dispositivo_id : BIGINT &#171;FK, nullable&#187;</text><g data-visibility-modifier="IE_MANDATORY"><ellipse cx="473.91" cy="749.6622" fill="#FFFFFF" rx="3" ry="3" style="stroke:#000000;stroke-width:1;"/></g><text fill="#000000" font-family="Verdana" font-size="14" lengthAdjust="spacing" textLength="185.582" x="480.91" y="753.0089">tipo_alerta : VARCHAR(50)</text><text fill="#000000" font-family="Verdana" font-size="14" lengthAdjust="spacing" textLength="321.4873" x="516.5116" y="769.3057">&#171;TEMPERATURA_ALTA | TEMPERATURA_BAJA&#187;</text><text fill="#000000" font-family="Verdana" font-size="14" lengthAdjust="spacing" textLength="265.084" x="516.5116" y="785.6026">&#171;HUMEDAD_AMBIENTE_BAJA | _ALTA&#187;</text><text fill="#000000" font-family="Verdana" font-size="14" lengthAdjust="spacing" textLength="270.9219" x="516.5116" y="801.8995">&#171;HUMEDAD_SUELO_BAJA | CO2_ALTO&#187;</text><text fill="#000000" font-family="Verdana" font-size="14" lengthAdjust="spacing" textLength="232.0117" x="516.5116" y="818.1964">&#171;DISPOSITIVO_DESCONECTADO&#187;</text><g data-visibility-modifier="IE_MANDATORY"><ellipse cx="473.91" cy="831.1466" fill="#FFFFFF" rx="3" ry="3" style="stroke:#000000;stroke-width:1;"/></g><text fill="#000000" font-family="Verdana" font-size="14" lengthAdjust="spacing" textLength="188.4189" x="480.91" y="834.4932">timestamp : TIMESTAMPTZ</text><g data-visibility-modifier="IE_MANDATORY"><ellipse cx="473.91" cy="847.4434" fill="#FFFFFF" rx="3" ry="3" style="stroke:#000000;stroke-width:1;"/></g><text fill="#000000" font-family="Verdana" font-size="14" lengthAdjust="spacing" textLength="108.6572" x="480.91" y="850.7901">mensaje : TEXT</text><g data-visibility-modifier="IE_MANDATORY"><ellipse cx="473.91" cy="863.7403" fill="#FFFFFF" rx="3" ry="3" style="stroke:#000000;stroke-width:1;"/></g><text fill="#000000" font-family="Verdana" font-size="14" lengthAdjust="spacing" textLength="158.2725" x="480.91" y="867.087">estado : VARCHAR(20)</text><text fill="#000000" font-family="Verdana" font-size="14" lengthAdjust="spacing" textLength="244.166" x="516.5116" y="883.3839">&#171;ACTIVA | RESUELTA | IGNORADA&#187;</text><text fill="#000000" font-family="Verdana" font-size="14" lengthAdjust="spacing" textLength="230.6104" x="480.91" y="899.6807">fecha_resolucion : TIMESTAMPTZ</text></g><!--class usuario_centro--><g class="entity" data-qualified-name="usuario_centro" data-source-line="94" id="ent0008"><rect fill="#FFFFFF" height="141.7813" rx="2.5" ry="2.5" style="stroke:#000000;stroke-width:1;" width="292.3447" x="113.28" y="396.75"/><ellipse cx="203.7903" cy="410.75" fill="#FFFFFF" rx="9" ry="9" style="stroke:#000000;stroke-width:1;"/><path d="M207.8996,416.75 L200.1809,416.75 L200.1809,404.3594 L207.8996,404.3594 L207.8996,406.5156 L202.634,406.5156 L202.634,409.1875 L207.3996,409.1875 L207.3996,411.3438 L202.634,411.3438 L202.634,414.5938 L207.8996,414.5938 L207.8996,416.75 Z " fill="#000000"/><text fill="#000000" font-family="Verdana" font-size="14" lengthAdjust="spacing" textLength="103.8242" x="221.2903" y="415.5967">usuario_centro</text><line style="stroke:#000000;stroke-width:1;" x1="114.28" x2="404.6247" y1="424.75" y2="424.75"/><g data-visibility-modifier="IE_MANDATORY"><ellipse cx="124.28" cy="438.3984" fill="#FFFFFF" rx="3" ry="3" style="stroke:#000000;stroke-width:1;"/></g><text fill="#000000" font-family="Verdana" font-size="14" lengthAdjust="spacing" textLength="139.1455" x="131.28" y="441.7451">id : BIGSERIAL &#171;PK&#187;</text><line style="stroke:#000000;stroke-width:1;" x1="114.28" x2="404.6247" y1="449.0469" y2="449.0469"/><g data-visibility-modifier="IE_MANDATORY"><ellipse cx="124.28" cy="462.6953" fill="#FFFFFF" rx="3" ry="3" style="stroke:#000000;stroke-width:1;"/></g><text fill="#000000" font-family="Verdana" font-size="14" lengthAdjust="spacing" textLength="171.7734" x="131.28" y="466.042">usuario_id : BIGINT &#171;FK&#187;</text><g data-visibility-modifier="IE_MANDATORY"><ellipse cx="124.28" cy="478.9922" fill="#FFFFFF" rx="3" ry="3" style="stroke:#000000;stroke-width:1;"/></g><text fill="#000000" font-family="Verdana" font-size="14" lengthAdjust="spacing" textLength="164.9375" x="131.28" y="482.3389">centro_id : BIGINT &#171;FK&#187;</text><text fill="#000000" font-family="Verdana" font-size="14" lengthAdjust="spacing" textLength="232.7432" x="166.8816" y="498.6357">&#171;UNIQUE (usuario_id, centro_id)&#187;</text><g data-visibility-modifier="IE_MANDATORY"><ellipse cx="124.28" cy="511.5859" fill="#FFFFFF" rx="3" ry="3" style="stroke:#000000;stroke-width:1;"/></g><text fill="#000000" font-family="Verdana" font-size="14" lengthAdjust="spacing" textLength="233.7207" x="131.28" y="514.9326">fecha_asignacion : TIMESTAMPTZ</text><g data-visibility-modifier="IE_MANDATORY"><ellipse cx="124.28" cy="527.8828" fill="#FFFFFF" rx="3" ry="3" style="stroke:#000000;stroke-width:1;"/></g><text fill="#000000" font-family="Verdana" font-size="14" lengthAdjust="spacing" textLength="124.4619" x="131.28" y="531.2295">activo : BOOLEAN</text></g><!--class notificacion--><g class="entity" data-qualified-name="notificacion" data-source-line="104" id="ent0009"><rect fill="#FFFFFF" height="125.4844" rx="2.5" ry="2.5" style="stroke:#000000;stroke-width:1;" width="220.8203" x="227.04" y="986.99"/><ellipse cx="293.2314" cy="1000.99" fill="#FFFFFF" rx="9" ry="9" style="stroke:#000000;stroke-width:1;"/><path d="M297.3408,1006.99 L289.622,1006.99 L289.622,994.5994 L297.3408,994.5994 L297.3408,996.7556 L292.0752,996.7556 L292.0752,999.4275 L296.8408,999.4275 L296.8408,1001.5838 L292.0752,1001.5838 L292.0752,1004.8338 L297.3408,1004.8338 L297.3408,1006.99 Z " fill="#000000"/><text fill="#000000" font-family="Verdana" font-size="14" lengthAdjust="spacing" textLength="80.9375" x="310.7314" y="1005.8367">notificacion</text><line style="stroke:#000000;stroke-width:1;" x1="228.04" x2="446.8603" y1="1014.99" y2="1014.99"/><g data-visibility-modifier="IE_MANDATORY"><ellipse cx="238.04" cy="1028.6384" fill="#FFFFFF" rx="3" ry="3" style="stroke:#000000;stroke-width:1;"/></g><text fill="#000000" font-family="Verdana" font-size="14" lengthAdjust="spacing" textLength="139.1455" x="245.04" y="1031.9851">id : BIGSERIAL &#171;PK&#187;</text><line style="stroke:#000000;stroke-width:1;" x1="228.04" x2="446.8603" y1="1039.2869" y2="1039.2869"/><g data-visibility-modifier="IE_MANDATORY"><ellipse cx="238.04" cy="1052.9353" fill="#FFFFFF" rx="3" ry="3" style="stroke:#000000;stroke-width:1;"/></g><text fill="#000000" font-family="Verdana" font-size="14" lengthAdjust="spacing" textLength="171.7734" x="245.04" y="1056.282">usuario_id : BIGINT &#171;FK&#187;</text><g data-visibility-modifier="IE_MANDATORY"><ellipse cx="238.04" cy="1069.2322" fill="#FFFFFF" rx="3" ry="3" style="stroke:#000000;stroke-width:1;"/></g><text fill="#000000" font-family="Verdana" font-size="14" lengthAdjust="spacing" textLength="160.8496" x="245.04" y="1072.5789">alerta_id : BIGINT &#171;FK&#187;</text><g data-visibility-modifier="IE_MANDATORY"><ellipse cx="238.04" cy="1085.5291" fill="#FFFFFF" rx="3" ry="3" style="stroke:#000000;stroke-width:1;"/></g><text fill="#000000" font-family="Verdana" font-size="14" lengthAdjust="spacing" textLength="115.8145" x="245.04" y="1088.8757">leida : BOOLEAN</text><g data-visibility-modifier="IE_MANDATORY"><ellipse cx="238.04" cy="1101.8259" fill="#FFFFFF" rx="3" ry="3" style="stroke:#000000;stroke-width:1;"/></g><text fill="#000000" font-family="Verdana" font-size="14" lengthAdjust="spacing" textLength="196.8203" x="245.04" y="1105.1726">fecha_envio : TIMESTAMPTZ</text></g><!--link centro to dispositivo--><g class="link" data-entity-1="ent0003" data-entity-2="ent0004" data-link-type="crowfoot" data-source-line="122" id="lnk10"><path codeLine="122" d="M649.45,276.04 C649.45,302.16 649.45,303.55 649.45,329.39" fill="none" id="centro-dispositivo" style="stroke:#000000;stroke-width:1;"/><line style="stroke:#000000;stroke-width:1;" x1="645.45" x2="653.45" y1="272.04" y2="272.04"/><line style="stroke:#000000;stroke-width:1;" x1="645.45" x2="653.45" y1="275.04" y2="275.04"/><line style="stroke:#000000;stroke-width:1;" x1="649.45" x2="649.45" y1="276.04" y2="268.04"/><line style="stroke:#000000;stroke-width:1;" x1="649.45" x2="655.45" y1="339.39" y2="347.39"/><line style="stroke:#000000;stroke-width:1;" x1="649.45" x2="643.45" y1="339.39" y2="347.39"/><line style="stroke:#000000;stroke-width:1;" x1="649.45" x2="649.45" y1="339.39" y2="347.39"/><ellipse cx="649.45" cy="333.39" fill="none" rx="4" ry="4" style="stroke:#000000;stroke-width:1;"/><text fill="#000000" font-family="Verdana" font-size="13" lengthAdjust="spacing" textLength="32.9443" x="616.45" y="303.7769">tiene</text></g><!--link centro to arbol--><g class="link" data-entity-1="ent0003" data-entity-2="ent0005" data-link-type="crowfoot" data-source-line="125" id="lnk11"><path codeLine="125" d="M778.89,140.47 C892.7,140.47 1037.45,140.47 1037.45,140.47 C1037.45,140.47 1037.45,265.05 1037.45,361.97" fill="none" id="centro-arbol" style="stroke:#000000;stroke-width:1;"/><line style="stroke:#000000;stroke-width:1;" x1="774.89" x2="774.89" y1="144.47" y2="136.47"/><line style="stroke:#000000;stroke-width:1;" x1="777.89" x2="777.89" y1="144.47" y2="136.47"/><line style="stroke:#000000;stroke-width:1;" x1="778.89" x2="770.89" y1="140.47" y2="140.47"/><line style="stroke:#000000;stroke-width:1;" x1="1037.45" x2="1043.45" y1="371.97" y2="379.97"/><line style="stroke:#000000;stroke-width:1;" x1="1037.45" x2="1031.45" y1="371.97" y2="379.97"/><line style="stroke:#000000;stroke-width:1;" x1="1037.45" x2="1037.45" y1="371.97" y2="379.97"/><ellipse cx="1037.45" cy="365.97" fill="none" rx="4" ry="4" style="stroke:#000000;stroke-width:1;"/><text fill="#000000" font-family="Verdana" font-size="13" lengthAdjust="spacing" textLength="32.9443" x="990.92" y="136.5369">tiene</text></g><!--link dispositivo to lectura--><g class="link" data-entity-1="ent0004" data-entity-2="ent0006" data-link-type="crowfoot" data-source-line="128" id="lnk12"><path codeLine="128" d="M457.11,563.47 C355.79,563.47 258.45,563.47 258.45,563.47 C258.45,563.47 258.45,601.4 258.45,657.34" fill="none" id="dispositivo-lectura" style="stroke:#000000;stroke-width:1;"/><line style="stroke:#000000;stroke-width:1;" x1="461.11" x2="461.11" y1="559.47" y2="567.47"/><line style="stroke:#000000;stroke-width:1;" x1="458.11" x2="458.11" y1="559.47" y2="567.47"/><line style="stroke:#000000;stroke-width:1;" x1="457.11" x2="465.11" y1="563.47" y2="563.47"/><line style="stroke:#000000;stroke-width:1;" x1="258.45" x2="264.45" y1="667.34" y2="675.34"/><line style="stroke:#000000;stroke-width:1;" x1="258.45" x2="252.45" y1="667.34" y2="675.34"/><line style="stroke:#000000;stroke-width:1;" x1="258.45" x2="258.45" y1="667.34" y2="675.34"/><ellipse cx="258.45" cy="661.34" fill="none" rx="4" ry="4" style="stroke:#000000;stroke-width:1;"/><text fill="#000000" font-family="Verdana" font-size="13" lengthAdjust="spacing" textLength="45.7983" x="259.85" y="559.5369">genera</text></g><!--link dispositivo to alerta--><g class="link" data-entity-1="ent0004" data-entity-2="ent0007" data-link-type="crowfoot" data-source-line="131" id="lnk13"><path codeLine="131" d="M649.45,602.54 C649.45,628.58 649.45,623.12 649.45,649.16" fill="none" id="dispositivo-alerta" style="stroke:#000000;stroke-width:1;"/><line style="stroke:#000000;stroke-width:1;" x1="649.45" x2="649.45" y1="598.54" y2="587.54"/><ellipse cx="649.45" cy="598.54" fill="none" rx="4" ry="4" style="stroke:#000000;stroke-width:1;"/><line style="stroke:#000000;stroke-width:1;" x1="645.45" x2="653.45" y1="591.54" y2="591.54"/><line style="stroke:#000000;stroke-width:1;" x1="649.45" x2="655.45" y1="659.16" y2="667.16"/><line style="stroke:#000000;stroke-width:1;" x1="649.45" x2="643.45" y1="659.16" y2="667.16"/><line style="stroke:#000000;stroke-width:1;" x1="649.45" x2="649.45" y1="659.16" y2="667.16"/><ellipse cx="649.45" cy="653.16" fill="none" rx="4" ry="4" style="stroke:#000000;stroke-width:1;"/><text fill="#000000" font-family="Verdana" font-size="13" lengthAdjust="spacing" textLength="45.7983" x="603.45" y="623.4169">genera</text></g><!--link usuario to usuario_centro--><g class="link" data-entity-1="ent0002" data-entity-2="ent0008" data-link-type="crowfoot" data-source-line="134" id="lnk14"><path codeLine="134" d="M192.09,235.32 C192.09,288.22 192.09,328.83 192.09,378.5" fill="none" id="usuario-usuario_centro" style="stroke:#000000;stroke-width:1;"/><line style="stroke:#000000;stroke-width:1;" x1="188.09" x2="196.09" y1="231.32" y2="231.32"/><line style="stroke:#000000;stroke-width:1;" x1="188.09" x2="196.09" y1="234.32" y2="234.32"/><line style="stroke:#000000;stroke-width:1;" x1="192.09" x2="192.09" y1="235.32" y2="227.32"/><line style="stroke:#000000;stroke-width:1;" x1="192.09" x2="198.09" y1="388.5" y2="396.5"/><line style="stroke:#000000;stroke-width:1;" x1="192.09" x2="186.09" y1="388.5" y2="396.5"/><line style="stroke:#000000;stroke-width:1;" x1="192.09" x2="192.09" y1="388.5" y2="396.5"/><ellipse cx="192.09" cy="382.5" fill="none" rx="4" ry="4" style="stroke:#000000;stroke-width:1;"/><text fill="#000000" font-family="Verdana" font-size="13" lengthAdjust="spacing" textLength="71.1128" x="120.09" y="307.9769">asignado a</text></g><!--link centro to usuario_centro--><g class="link" data-entity-1="ent0003" data-entity-2="ent0008" data-link-type="crowfoot" data-source-line="137" id="lnk15"><path codeLine="137" d="M520.25,248.47 C432.87,248.47 338.26,248.47 338.26,248.47 C338.26,248.47 338.26,314.49 338.26,378.48" fill="none" id="centro-usuario_centro" style="stroke:#000000;stroke-width:1;"/><line style="stroke:#000000;stroke-width:1;" x1="524.25" x2="524.25" y1="244.47" y2="252.47"/><line style="stroke:#000000;stroke-width:1;" x1="521.25" x2="521.25" y1="244.47" y2="252.47"/><line style="stroke:#000000;stroke-width:1;" x1="520.25" x2="528.25" y1="248.47" y2="248.47"/><line style="stroke:#000000;stroke-width:1;" x1="338.26" x2="344.26" y1="388.48" y2="396.48"/><line style="stroke:#000000;stroke-width:1;" x1="338.26" x2="332.26" y1="388.48" y2="396.48"/><line style="stroke:#000000;stroke-width:1;" x1="338.26" x2="338.26" y1="388.48" y2="396.48"/><ellipse cx="338.26" cy="382.48" fill="none" rx="4" ry="4" style="stroke:#000000;stroke-width:1;"/><text fill="#000000" font-family="Verdana" font-size="13" lengthAdjust="spacing" textLength="71.1128" x="287.25" y="244.5369">asignado a</text></g><!--link usuario to notificacion--><g class="link" data-entity-1="ent0002" data-entity-2="ent0009" data-link-type="crowfoot" data-source-line="140" id="lnk16"><path codeLine="140" d="M62.64,235.24 C62.64,463.14 62.64,1050.47 62.64,1050.47 C62.64,1050.47 132.5,1050.47 208.86,1050.47" fill="none" id="usuario-notificacion" style="stroke:#000000;stroke-width:1;"/><line style="stroke:#000000;stroke-width:1;" x1="58.64" x2="66.64" y1="231.24" y2="231.24"/><line style="stroke:#000000;stroke-width:1;" x1="58.64" x2="66.64" y1="234.24" y2="234.24"/><line style="stroke:#000000;stroke-width:1;" x1="62.64" x2="62.64" y1="235.24" y2="227.24"/><line style="stroke:#000000;stroke-width:1;" x1="218.86" x2="226.86" y1="1050.47" y2="1044.47"/><line style="stroke:#000000;stroke-width:1;" x1="218.86" x2="226.86" y1="1050.47" y2="1056.47"/><line style="stroke:#000000;stroke-width:1;" x1="218.86" x2="226.86" y1="1050.47" y2="1050.47"/><ellipse cx="212.86" cy="1050.47" fill="none" rx="4" ry="4" style="stroke:#000000;stroke-width:1;"/><text fill="#000000" font-family="Verdana" font-size="13" lengthAdjust="spacing" textLength="40.3521" x="21.64" y="717.0369">recibe</text></g><!--link alerta to notificacion--><g class="link" data-entity-1="ent0007" data-entity-2="ent0009" data-link-type="crowfoot" data-source-line="143" id="lnk17"><path codeLine="143" d="M454.42,903.47 C433.02,903.47 426.74,903.47 426.74,903.47 C426.74,903.47 426.74,929.21 426.74,968.85" fill="none" id="alerta-notificacion" style="stroke:#000000;stroke-width:1;"/><line style="stroke:#000000;stroke-width:1;" x1="458.42" x2="458.42" y1="899.47" y2="907.47"/><line style="stroke:#000000;stroke-width:1;" x1="455.42" x2="455.42" y1="899.47" y2="907.47"/><line style="stroke:#000000;stroke-width:1;" x1="454.42" x2="462.42" y1="903.47" y2="903.47"/><line style="stroke:#000000;stroke-width:1;" x1="426.74" x2="432.74" y1="978.85" y2="986.85"/><line style="stroke:#000000;stroke-width:1;" x1="426.74" x2="420.74" y1="978.85" y2="986.85"/><line style="stroke:#000000;stroke-width:1;" x1="426.74" x2="426.74" y1="978.85" y2="986.85"/><ellipse cx="426.74" cy="972.85" fill="none" rx="4" ry="4" style="stroke:#000000;stroke-width:1;"/><text fill="#000000" font-family="Verdana" font-size="13" lengthAdjust="spacing" textLength="44.9795" x="381.74" y="923.3869">origina</text></g><?plantuml-src pLVTRjis5BxtKt2vQHmuGE8YQn1a1HXBIxNOaYVBnJ0C46Y9iRbAfA2VD5qzO0-nDzaZx4ts93ka99kMBCShTj4W5mhFT_u_diDyawzeJ54I4SPxsGV64vAI64MCq_nJGf58yvNG15o4DAC9-lP2Eqm9_o0FhozwFSfpbdz29qLMa9I94qGoL7sZpps4pX0BqGswi-vdfclXCRgzdJwyVGkIytCbvY9Uf1GWxx4xUeVTqykBYxwIq9YmI1TSNVH1VMvRFyvDPU8C9IJBFeeqz5SaMsdOuTLLQIGLkecXClrBVdkBZObbepKQEOvhM3Os7BSo-KY35V63b9A02GxAdZKnPnwUJBsV5O04ENiICYd76PlOxls-BKC07wdmQLW4HA9KFSh3Bop7i2v7o58QL27LmjUbC09VUI4D6-R8ck0n575mhII2BvkYorAKqYmHF2EBQ4_rMHQHLjqIiOX88u8AdwJYYV60aROe425R2ZyHMKvssgcaEOtee-2YvMnVzr_kZzQAa45-6PDTy27LrqFL2-tqk8R49F1964ArCZsQDoqgLgslpLcs1uZl7offYpG85L7EOiX4SFgydscFqF62ohBw4Gto8YL-HfS01EFclUbA8q0N4lavZHC_PbphyzLWs6y2o7CdO5N4D2IXJ-85WqpeGMjjy16Miu96ug3PG0mRbjv8kTPKaYv4f1gflevhuU7E71X0MK83Hhj926EKvpKD3UoPCfK52zIHNwe_mf_jwqmMcKWLIkPCUA6kHftrTLaLY1piCwYTrdAj61KdL3cgxxq5KKV0DGetC4vQF9FZSFe0zpHE2Wb1fomSRF5zLIS9ykHHG29gtA4LR8iqbyD3hxH-vphABOb8KwA2RV7W33MPTGYZ2DK6G4MR3891MFnssOR2wR1vghCjaZcMT5EVn_3jK0q6Y1THjAcQx4eY_ChsbYHNcpNbcPEfwM9lxc8VZpqC6qi_kiC_u4rxtiqdfe4D7q_kB1FOegIWe1HRgDdS73irPEGC9ShPe0nhDdLcbcUzTtp3d8qSsnnvi2GtONUH2GOcXQNogsoSP_xaLHSf9w7OluT7u4E6u9eo8fMXTMyxBZRAcCkR1kDNHCNXWLyzE_pokkil4V-_RE1QfuE_XuQ9JAZS2UXqQsQmrUdll358nfRyIruPNEHghaXLbQT-yBzaMLAoInfH64exkwnEYV8d9jejUeN--VEFh-4N8d7DCHvPGEWP_64BER___ekZ81KVNsNeKOZy1gtN27s7w3CqWSHg31LS07p_prf8T421OU8WK7pMW74Hh4JMRLHXmPeE_Lgg2A5KLqe_Hgqd5-HnUdbZ3v1Zmv0Tcvw9HdWsmeRPxrK6rklpSwYB_YwxGISv37zwqkMdtFsxFqVwALLtFBIZtd5MRzPk3thibPjQ2HmjmGyiwICyLNkWzjHO9FPyFCPtuwO_KQPLhn3TNVr_s8wJnaXKfPDxdA04x07JxPj9lrUhLkaqbC1DERjWg9FEBktnjC_LRdzUzBGtgPtvzn8X6hdjw88_U7EpHScCggelkkhsLLdeS2LIjcISdFmB?></g></svg>